# xmcd CD database file
#
# Track frame offsets:
#	150
#	16306
#	32349
#	46380
#	59114
#	74042
#	89597
#	107350
#	123605
#	139405
#
# Disc length: 2060 seconds
#
# Revision: 0
# Processed by: cddbd v1.5.2PL0 Copyright (c) Steve Scherf et al.
# Submitted via: CDex 1.70beta2
#
DISCID=93080a0a
DTITLE=George Lamond - Oye Mi Canto
DYEAR=2006
DGENRE=Salsa
TTITLE0=Raspa (Ft. K7)
TTITLE1=Mi Patria
TTITLE2=Me Enamore
TTITLE3=Hechicera (Ft. Chyno Nyno)
TTITLE4=Luz de Tu Vida (Ft. DEV)
TTITLE5=Mamasita (Ft. Jasmin)
TTITLE6=Tu Lloraras (Ft. Dino Latino)
TTITLE7=La Encontre
TTITLE8=Mi Patria Remix (Ft. O.G Black)
TTITLE9=Raspa Remix (Ft. K7)
EXTD=YEAR: 2006
EXTT0=
EXTT1=
EXTT2=
EXTT3=
EXTT4=
EXTT5=
EXTT6=
EXTT7=
EXTT8=
EXTT9=
PLAYORDER=
